<svg width="32" height="32" viewBox="0 0 32 32" fill="none" xmlns="http://www.w3.org/2000/svg">
<g id="linkedin">
<path id="Vector" d="M26.7058 2.23535C27.5171 2.23535 28.2951 2.55762 28.8687 3.13126C29.4424 3.70489 29.7646 4.48292 29.7646 5.29416V26.7058C29.7646 27.5171 29.4424 28.2951 28.8687 28.8687C28.2951 29.4424 27.5171 29.7646 26.7058 29.7646H5.29416C4.48292 29.7646 3.70489 29.4424 3.13126 28.8687C2.55762 28.2951 2.23535 27.5171 2.23535 26.7058V5.29416C2.23535 4.48292 2.55762 3.70489 3.13126 3.13126C3.70489 2.55762 4.48292 2.23535 5.29416 2.23535H26.7058ZM25.9411 25.9411V17.8353C25.9411 16.513 25.4158 15.2448 24.4808 14.3097C23.5458 13.3747 22.2776 12.8494 20.9553 12.8494C19.6553 12.8494 18.1412 13.6447 17.4071 14.8377V13.14H13.14V25.9411H17.4071V18.4012C17.4071 17.2235 18.3553 16.26 19.5329 16.26C20.1008 16.26 20.6454 16.4856 21.047 16.8871C21.4485 17.2887 21.6741 17.8333 21.6741 18.4012V25.9411H25.9411ZM8.16944 10.7388C8.85089 10.7388 9.50443 10.4681 9.98629 9.98629C10.4681 9.50443 10.7388 8.85089 10.7388 8.16944C10.7388 6.7471 9.59179 5.58475 8.16944 5.58475C7.48394 5.58475 6.82651 5.85706 6.34179 6.34179C5.85706 6.82651 5.58475 7.48394 5.58475 8.16944C5.58475 9.59179 6.7471 10.7388 8.16944 10.7388ZM10.2953 25.9411V13.14H6.05887V25.9411H10.2953Z" fill="white"/>
</g>
</svg>
